<svg width="1200" height="630" viewBox="0 0 1200 630" fill="none" xmlns="http://www.w3.org/2000/svg">
  <rect width="1200" height="630" fill="#FFF8EA"/>
  <circle cx="1070" cy="110" r="130" fill="#F6C96D" opacity="0.45"/>
  <circle cx="130" cy="520" r="160" fill="#8ECAE6" opacity="0.3"/>
  <rect x="78" y="82" width="1044" height="466" rx="48" fill="white"/>
  <text x="130" y="210" font-family="Arial, sans-serif" font-size="76" font-weight="800" fill="#2F2D2A">Gotitas de Amor Daycare</text>
  <text x="130" y="295" font-family="Arial, sans-serif" font-size="42" font-weight="700" fill="#B96D1F">Cuidado infantil con amor, seguridad y confianza</text>
  <text x="130" y="374" font-family="Arial, sans-serif" font-size="32" fill="#665F58">Merrick, NY · Hablamos Español · NYS OCFS Licensed</text>
  <text x="130" y="442" font-family="Arial, sans-serif" font-size="32" fill="#665F58">Comidas incluidas · Transporte disponible · CPR & First-Aid</text>
  <path d="M930 220C930 220 864 292 864 350C864 392 893 425 930 425C967 425 996 392 996 350C996 292 930 220 930 220Z" fill="#8ECAE6"/>
  <path d="M933 385C918 368 884 348 884 317C884 296 901 281 920 281C931 281 940 288 947 296C954 288 964 281 976 281C996 281 1012 296 1012 317C1012 352 974 372 947 399L933 385Z" fill="#F58F7C"/>
</svg>
